<svg xmlns="http://www.w3.org/2000/svg" viewBox="0 0 181.09 75.34">
  <path d="M.65 47.5V47c0-3.94 1.62-6 3.53-6s3.31 2.09 3.31 6v1.2h-4.7c.11 2.29 1 3.22 2.16 3.22A3.55 3.55 0 0 0 7 50.6l.18 2a4.44 4.44 0 0 1-2.57.83C2.49 53.42.65 51.42.65 47.5zm4.81-1c0-2.24-.46-3.5-1.28-3.5s-1.35 1.1-1.42 3.53zM9.29 41.22h2.14V43c.41-.92 1.06-2 2.23-2 1.49 0 2.73 1.58 2.73 5.77v.88c0 4.14-1.24 5.76-2.73 5.76-1.17 0-1.8-1-2.23-1.91v4.63H9.29zm5 6.35v-.68c0-2.5-.54-3.85-1.38-3.85s-1.46 1.35-1.46 3.8v.75c0 2.45.63 3.8 1.46 3.8s1.34-1.39 1.34-3.82zM18.37 37.32h2.2v2.34h-2.2zm0 3.9h2.14v12h-2.1zM22.8 41.22h2.14v1.53A2.5 2.5 0 0 1 27.17 41c1.55 0 2.43 1.31 2.43 3.33v8.88h-2.14V44.8c0-1.22-.45-1.87-1.19-1.87s-1.33.72-1.33 1.91v8.38H22.8zM31.4 47.5V47c0-3.94 1.62-6 3.54-6s3.31 2.09 3.31 6v1.2h-4.71c.11 2.29 1.06 3.22 2.16 3.22a3.58 3.58 0 0 0 2.1-.82l.18 2a4.44 4.44 0 0 1-2.57.83c-2.16-.01-4.01-2.01-4.01-5.93zm4.82-1c0-2.22-.47-3.53-1.28-3.53s-1.35 1.1-1.42 3.53zM40.05 41.22h2.14V43c.4-.92 1.06-2 2.23-2 1.48 0 2.72 1.58 2.72 5.77v.88c0 4.14-1.24 5.76-2.72 5.76-1.17 0-1.8-1-2.23-1.91v4.63h-2.14zm5 6.35v-.68c0-2.5-.54-3.85-1.37-3.85s-1.46 1.35-1.46 3.8v.75c0 2.45.63 3.8 1.46 3.8S45 50 45 47.57zM49.1 37.32h2.14v5.43A2.5 2.5 0 0 1 53.47 41c1.55 0 2.43 1.31 2.43 3.33v8.88h-2.14V44.8c0-1.22-.45-1.87-1.19-1.87s-1.33.72-1.33 1.91v8.38H49.1zM58 41.22h2.14v1.57a2.18 2.18 0 0 1 2.18-1.71v2.54c-1.33 0-2.14.88-2.14 2.71v6.89H58zM64 37.32h2.21v2.34H64zm0 3.9h2.14v12h-2.07zM68.46 41.22h2.14v1.53A2.51 2.51 0 0 1 72.83 41c1.56 0 2.43 1.31 2.43 3.33v8.88h-2.13V44.8c0-1.22-.45-1.87-1.2-1.87s-1.33.72-1.33 1.91v8.38h-2.14zM77.07 47.5V47c0-3.94 1.62-6 3.53-6s3.31 2.09 3.31 6v1.2H79.2c.12 2.29 1.06 3.22 2.17 3.22a3.57 3.57 0 0 0 2.09-.82l.18 2a4.44 4.44 0 0 1-2.57.83c-2.16-.01-4-2.01-4-5.93zm4.81-1c0-2.22-.47-3.53-1.28-3.53s-1.35 1.1-1.42 3.53zM89.81 37.32H92v2.34h-2.19zm0 3.9H92v12h-2.15zM93.8 41.22h2.13v1.53A2.51 2.51 0 0 1 98.16 41c1.56 0 2.44 1.31 2.44 3.33v8.88h-2.14V44.8c0-1.22-.45-1.87-1.2-1.87s-1.33.72-1.33 1.91v8.38H93.8zM101 56.1v-1.71a1.42 1.42 0 0 0 .29 0c.81 0 1.15-.45 1.15-1.31V41.22h2.14v12.13c0 1.85-.9 2.86-2.68 2.86a3.15 3.15 0 0 1-.9-.11zm1.42-18.78h2.18v2.34h-2.2zM106.49 47.5V47c0-3.94 1.63-6 3.54-6s3.31 2.09 3.31 6v1.2h-4.71c.12 2.29 1.06 3.22 2.16 3.22a3.58 3.58 0 0 0 2.1-.82l.18 2a4.44 4.44 0 0 1-2.57.83c-2.16-.01-4.01-2.01-4.01-5.93zm4.82-1c0-2.22-.47-3.53-1.28-3.53s-1.35 1.1-1.42 3.53zM114.85 47.52V47c0-3.94 1.66-5.9 3.74-5.9a3 3 0 0 1 1.59.34v2.2a2.62 2.62 0 0 0-1.37-.47c-1 0-1.8 1.06-1.8 3.78v.66c0 2.72.83 3.78 1.87 3.78a2.41 2.41 0 0 0 1.3-.54V53a3 3 0 0 1-1.64.47c-2.14-.05-3.69-1.99-3.69-5.95zM122.21 51.17V43h-.86v-1.78h.86v-3.16h2.14v3.16h1.55V43h-1.55v7.5c0 .7.31.93.88.93a1.71 1.71 0 0 0 .67-.14V53a3.07 3.07 0 0 1-1.33.31c-1.28.04-2.36-.41-2.36-2.14zM127.25 37.32h2.21v2.34h-2.21zm0 3.9h2.14v12h-2.09zM131 47.52V47c0-3.83 1.57-5.92 3.62-5.92s3.6 2.09 3.6 5.92v.56c0 3.83-1.57 5.9-3.6 5.9S131 51.35 131 47.52zm5.09 0v-.63c0-2.59-.61-4-1.47-4s-1.48 1.37-1.48 4v.63c0 2.59.6 4 1.48 4s1.38-1.39 1.38-3.98zM140.09 41.22h2.14v1.53a2.5 2.5 0 0 1 2.23-1.75c1.55 0 2.43 1.31 2.43 3.33v8.88h-2.14V44.8c0-1.22-.45-1.87-1.19-1.87s-1.33.72-1.33 1.91v8.38h-2.14zM148.58 55.51a2 2 0 0 0 1.66-2.29h-1.17v-2.75h2.59v2.27c0 2.1-.92 3.34-2.86 3.72zM156.23 48.78V37.46h2.21V49c0 1.65.63 2.39 1.55 2.39s1.58-.74 1.58-2.39V37.46h2.18v11.32c0 3.11-1.55 4.64-3.76 4.64s-3.76-1.53-3.76-4.64zM165.67 52.65v-2.34a5 5 0 0 0 2.56.93 1.53 1.53 0 0 0 1.67-1.63c0-.9-.29-1.55-1.73-3.29-1.94-2.32-2.64-3.31-2.64-5.09a3.6 3.6 0 0 1 3.6-3.85 4.89 4.89 0 0 1 2.44.56v2.26a4.07 4.07 0 0 0-2.19-.76 1.54 1.54 0 0 0-1.62 1.6c0 .88.29 1.35 1.73 3.06 2.1 2.48 2.64 3.54 2.64 5.32a3.67 3.67 0 0 1-3.69 3.87 5.91 5.91 0 0 1-2.77-.64zM173.86 37.46h2.3c3 0 4.93 1.71 4.93 5.2 0 3.38-1.89 5.16-4.73 5.32h-.27v5.2h-2.23zm2.52 8.54c1.49 0 2.48-1.11 2.48-3.2v-.05c0-2.18-.94-3.22-2.43-3.22h-.34V46z" fill="#6d6e70"/>
  <path d="M4.82 20.78A4.82 4.82 0 1 1 9.64 16a4.83 4.83 0 0 1-4.82 4.78zM14.92 26a3.07 3.07 0 1 1-4.35-4.34 7.56 7.56 0 0 0 0-10.7c-.13-.13-.28-.26-.46-.42a3.07 3.07 0 0 1 4-4.68c.29.25.56.5.83.76a13.71 13.71 0 0 1 0 19.38zM22 31a3.07 3.07 0 0 1-2.18.9 3 3 0 0 1-2.16-.9 3.08 3.08 0 0 1 0-4.34 14.74 14.74 0 0 0 0-20.83c-.16-.17-.33-.33-.52-.51A3.05 3.05 0 0 1 16.91 1a3.07 3.07 0 0 1 4.34-.2c.27.24.5.47.74.7A20.91 20.91 0 0 1 22 31z" fill="#ee3e2a"/>
  <path d="M52.07 27.29l-1.31-3.94h-9.27l-1.3 3.94h-9.54L41.12 3.06H51l10.5 24.23zm-6-17.5L43.31 18h5.63zM79.8 27.29v-2.47a12.94 12.94 0 0 1-1.37 1.1 12 12 0 0 1-6.69 1.79c-2.79 0-5.81-.79-7.42-3.26a7.78 7.78 0 0 1-.93-2.24 9.62 9.62 0 0 1-.2-2.05V9.1h8.13v9.06a5.39 5.39 0 0 0 .14 1.84c.68 2.34 3.26 2.41 3.84 2.41a4.62 4.62 0 0 0 3.26-1.27 5.37 5.37 0 0 0 1-3.47V9.1h8.1v18.19zM106 27.29h-8.33L89.16 9.1H98l3.85 10.33 3.79-10.33h8.75zM116 7.32V3.06h8v4.26zm0 20V9.1h8v18.19zM126.74 19.47v-6H139v6zM171.43 31.31l-7.83-4a21 21 0 0 1-6.45.79c-5.49 0-8.58-1.13-10.71-2.51A11.83 11.83 0 0 1 141 15.25a13.1 13.1 0 0 1 2.13-7.31c3.22-4.77 8.75-5.77 14.14-5.77 4.25 0 8.51.62 11.87 3.47a10.92 10.92 0 0 1 3.47 5.15 16.52 16.52 0 0 1 .62 4.53 12.31 12.31 0 0 1-1.82 6.55 15.13 15.13 0 0 1-1.1 1.44l4.19 2zm-7.66-19.25a6.6 6.6 0 0 0-6.59-4.5 6.82 6.82 0 0 0-4.77 1.85 8.4 8.4 0 0 0-2.37 6 9.48 9.48 0 0 0 .52 3.09c1.44 3.95 5.46 4.22 6.66 4.22a7.35 7.35 0 0 0 5.25-2 7.81 7.81 0 0 0 1.89-5.39 9.84 9.84 0 0 0-.59-3.27zM178.21 7.54a2.57 2.57 0 0 1-3.6 0 2.46 2.46 0 0 1-.74-1.82 2.39 2.39 0 0 1 .8-1.86 2.55 2.55 0 0 1 3.56 0 2.46 2.46 0 0 1 .77 1.85 2.4 2.4 0 0 1-.79 1.83zm-3.29-3.31a2 2 0 0 0-.61 1.48 2.08 2.08 0 0 0 .62 1.51 2.1 2.1 0 0 0 3 0 2.1 2.1 0 0 0 .62-1.51 2 2 0 0 0-.61-1.48 2.08 2.08 0 0 0-3 0zm.38 2.9V4.3h1.38a1.48 1.48 0 0 1 .56.15.71.71 0 0 1 .37.68.62.62 0 0 1-.19.51.92.92 0 0 1-.5.19.92.92 0 0 1 .41.17.77.77 0 0 1 .25.63v.53h-.71a2.51 2.51 0 0 1 0-.39 1.22 1.22 0 0 0 0-.35.36.36 0 0 0-.21-.21 1.18 1.18 0 0 0-.25 0h-.32v1zm1.36-2.27a1.27 1.27 0 0 0-.43-.06h-.18v.82h.28a.69.69 0 0 0 .41-.11.36.36 0 0 0 .15-.33.32.32 0 0 0-.23-.32zM37.54 67.44v-.65c0-4.12 1-5.8 2.86-5.8s2.86 1.68 2.86 5.8v.65c0 4.12-1 5.81-2.86 5.81s-2.86-1.69-2.86-5.81zm3.72 0v-.61c0-3.37-.4-3.92-.86-3.92s-.88.55-.88 3.92v.61c0 3.38.4 3.92.88 3.92s.86-.56.86-3.94zM44.23 70.71h2.28v2.37h-2.28zM48 63.35l-1.19.4v-2.1l1.79-.58H50v12h-2zM51.17 72.87v-2a3 3 0 0 0 1.32.35c.94 0 1.47-.8 1.47-2.06V69c0-1.26-.45-1.7-1.11-1.7a1.81 1.81 0 0 0-.79.17l-1-.66.32-5.67h4.11v2h-2.61l-.14 2.39a3.12 3.12 0 0 1 .77-.09c1.22 0 2.43.92 2.43 3.58v.15c0 2.57-1.32 4-3.24 4a3.94 3.94 0 0 1-1.53-.3zM59.19 64h2v1c.4-.76.84-1.24 1.57-1.24a1.66 1.66 0 0 1 1.49 1.06 2 2 0 0 1 1.58-1.06c.94 0 1.84.82 1.84 2.42v6.88h-2v-6.42c0-.66-.23-1.06-.63-1.06s-.66.4-.66 1.06v6.44h-1.95v-6.44c0-.66-.23-1.06-.63-1.06s-.66.4-.66 1.06v6.44h-2zM68.85 75v-1.82a5.92 5.92 0 0 0 1.66.37 1.25 1.25 0 0 0 1.42-1.43v-.9c-.28.56-.71 1.31-1.57 1.31-1.06 0-1.87-1.09-1.87-4.32v-.11c0-3.25.81-4.32 1.87-4.32.86 0 1.27.71 1.57 1.28V64h1.95v8.33c0 2.21-1.23 3-3.11 3a5.79 5.79 0 0 1-1.92-.33zm3.09-6.86c0-1.62-.31-2.44-.77-2.44s-.73.82-.73 2.44c0 1.64.26 2.44.73 2.44s.77-.77.77-2.41zM77.81 60h1.63l-3.62 14.75h-1.63z" fill="#00adee"/>
  <path d="M79.74 67.44v-.65c0-4.12 1-5.8 2.86-5.8s2.85 1.68 2.85 5.8v.65c0 4.12-1 5.81-2.85 5.81s-2.86-1.69-2.86-5.81zm3.71 0v-.61c0-3.37-.39-3.92-.85-3.92s-.88.55-.88 3.92v.61c0 3.38.4 3.92.88 3.92s.85-.56.85-3.94zM85.77 70.71h2.28v2.37h-2.28zM89 72.87v-2a3.33 3.33 0 0 0 1.45.32 1.49 1.49 0 0 0 1.44-1.68v-.11c0-1.24-.79-1.75-2-1.84V66.2l1.89-3h-2.61v-2h4.66V63l-2 3.09a2.91 2.91 0 0 1 2 3.15v.18c0 2.34-1.34 3.77-3.15 3.77a4.12 4.12 0 0 1-1.68-.32zM97.54 64h1.95v1c.4-.76.84-1.24 1.57-1.24a1.66 1.66 0 0 1 1.49 1.06 2 2 0 0 1 1.58-1.06c.94 0 1.84.82 1.84 2.42v6.88h-2v-6.42c0-.66-.23-1.06-.63-1.06s-.66.4-.66 1.06v6.44h-2v-6.44c0-.66-.23-1.06-.63-1.06s-.66.4-.66 1.06v6.44h-1.85zM107.2 75v-1.82a5.94 5.94 0 0 0 1.65.37 1.25 1.25 0 0 0 1.43-1.43v-.9c-.29.56-.72 1.31-1.57 1.31-1.06 0-1.87-1.09-1.87-4.32v-.11c0-3.25.81-4.32 1.87-4.32.85 0 1.27.71 1.57 1.28V64h1.94v8.33c0 2.21-1.22 3-3.1 3a5.79 5.79 0 0 1-1.92-.33zm3.09-6.86c0-1.62-.31-2.44-.77-2.44s-.73.82-.73 2.44c0 1.64.26 2.44.73 2.44s.77-.77.77-2.41z" fill="#ee3e2a"/>
  <path d="M115.72 70.49v-.17c0-1.77.83-2.88 2.2-2.88a3.13 3.13 0 0 1 1.39.34v-1c0-1.16-.53-1.82-1.55-1.82a3.1 3.1 0 0 0-1.57.41v-1a3.59 3.59 0 0 1 1.7-.4c1.52 0 2.44 1 2.44 2.73v6.37h-1v-1.2a1.8 1.8 0 0 1-1.67 1.36c-1.14 0-1.94-1.14-1.94-2.74zm3.59-.1v-1.72a2.74 2.74 0 0 0-1.21-.33c-.89 0-1.37.77-1.37 1.91v.17c0 1.12.43 1.89 1.19 1.89s1.39-.9 1.39-1.92zM121.69 70.52v-6.43h1v6.25c0 1.26.45 2 1.22 2s1.39-.81 1.39-2v-6.25h1v9h-1v-1.26a1.92 1.92 0 0 1-1.73 1.4c-1.14 0-1.88-1-1.88-2.71zM128.1 71.56V65h-.75v-.92h.75v-2.46h1v2.47h1.3V65h-1.3v6.3c0 .68.29.86.81.86a1.86 1.86 0 0 0 .51-.08V73a2.27 2.27 0 0 1-.75.15 1.41 1.41 0 0 1-1.57-1.59zM131.1 68.72v-.26c0-2.84 1.16-4.51 2.54-4.51s2.53 1.67 2.53 4.51v.26c0 2.84-1.15 4.51-2.54 4.51s-2.53-1.67-2.53-4.51zm4 0v-.27c0-2.2-.66-3.53-1.5-3.53s-1.51 1.33-1.51 3.53v.27c0 2.19.67 3.54 1.51 3.54s1.53-1.35 1.53-3.54zM137.23 67.44h3.42v1.06h-3.42zM142.05 61.06h1.07v1.39h-1.07zm0 3h1v9h-1zM144.68 64.09h1v1.26a1.93 1.93 0 0 1 1.73-1.42c1.16 0 1.9 1 1.9 2.71v6.44h-1v-6.25c0-1.26-.45-2-1.22-2s-1.39.82-1.39 2.06v6.15h-1zM149.65 75.26v-.92a.94.94 0 0 0 .29.06c.8 0 1-.56 1-1.37v-8.94h1v9.17c0 1.14-.46 2.08-1.78 2.08a1.52 1.52 0 0 1-.51-.08zm1.25-14.2h1.1v1.39h-1.1zM153.23 68.77v-.24c0-3 1.14-4.58 2.46-4.58s2.31 1.58 2.31 4.43v.68h-3.76c.06 2.14.9 3.15 1.94 3.15a2.49 2.49 0 0 0 1.52-.56l.1 1a2.94 2.94 0 0 1-1.76.54c-1.49.02-2.81-1.48-2.81-4.42zm3.8-.6c0-1.92-.54-3.25-1.34-3.25s-1.39 1.07-1.43 3.25zM158.93 68.73v-.27c0-3 1.27-4.49 2.67-4.49a1.91 1.91 0 0 1 1.1.29v1.12a1.7 1.7 0 0 0-1-.39c-.8 0-1.68 1-1.68 3.44v.34c0 2.45.84 3.42 1.75 3.42a1.66 1.66 0 0 0 1-.41v1.08a1.84 1.84 0 0 1-1.11.35c-1.51 0-2.73-1.41-2.73-4.48zM164 71.56V65h-.74v-.92h.74v-2.46h1v2.47h1.3V65H165v6.3c0 .68.3.86.81.86a1.81 1.81 0 0 0 .51-.08V73a2.27 2.27 0 0 1-.74.15 1.42 1.42 0 0 1-1.58-1.59zM167 68.72v-.26c0-2.84 1.16-4.51 2.55-4.51s2.45 1.67 2.45 4.51v.26c0 2.84-1.15 4.51-2.54 4.51S167 71.56 167 68.72zm4 0v-.27c0-2.2-.66-3.53-1.5-3.53s-1.5 1.33-1.5 3.53v.27c0 2.19.66 3.54 1.5 3.54s1.5-1.35 1.5-3.54zM173.23 64.09h1v1.26a1.87 1.87 0 0 1 1.89-1.35v1.21c-1 0-1.83.7-1.83 2.2v5.69h-1zM176.55 72.77V71.7a3.93 3.93 0 0 0 1.74.53 1.11 1.11 0 0 0 1.15-1.16c0-.56-.3-1.1-1.27-2.06-1.17-1.15-1.63-1.89-1.63-2.86a2 2 0 0 1 2.11-2.15 3.26 3.26 0 0 1 1.44.29v1.07a3 3 0 0 0-1.44-.38 1 1 0 0 0-1.09 1.02c0 .56.28 1 1.29 2 1.15 1.28 1.62 2 1.62 3a2.11 2.11 0 0 1-2.17 2.18 3.9 3.9 0 0 1-1.75-.41z" fill="#6d6e70"/>
  <path d="M3.87 60.92c-1.93 0-2.95 1.68-2.95 5.8v.65c0 4.12 1 5.81 3 5.81s2.94-1.69 2.94-5.81v-.65c-.05-4.12-1.1-5.8-2.99-5.8zm.88 6.43c0 3.37-.4 3.92-.88 3.92S3 70.72 3 67.35v-.61c0-3.37.4-3.92.9-3.92s.88.55.88 3.92zM7.22 70.64h2.35v2.37H7.22zM23.19 63.71a2.1 2.1 0 0 0-1.64 1.05A1.69 1.69 0 0 0 20 63.71c-.75 0-1.21.48-1.62 1.24v-1.07h-2V73h2v-6.43c0-.66.28-1.06.69-1.06s.64.4.64 1.06V73h2v-6.43c0-.66.28-1.06.68-1.06s.65.4.65 1.06V73h2v-6.87c.04-1.6-.88-2.42-1.85-2.42zM29.61 65c-.31-.57-.73-1.28-1.62-1.28-1.09 0-1.92 1.07-1.92 4.32v.11c0 3.23.83 4.32 1.92 4.32.89 0 1.33-.75 1.62-1.31v.9c0 1.06-.56 1.43-1.47 1.43a6.16 6.16 0 0 1-1.7-.37V75a6.17 6.17 0 0 0 2 .29c1.94 0 3.2-.83 3.2-3v-8.41h-2zm0 3.11c0 1.64-.33 2.44-.8 2.44s-.75-.8-.75-2.44c0-1.62.27-2.44.75-2.44s.8.82.8 2.44zM9.49 61.58v2.1l1.23-.39v9.72h2.09v-12h-1.48l-1.84.57zM35.41 60h1.64l-3.62 14.76h-1.64z" fill="#b9a3cd"/>
</svg>
