<svg xmlns="http://www.w3.org/2000/svg" viewBox="0 0 248.21 60.31"><defs><style>.oiwjdvhue-1{fill:#ee3e2a;}.oiwjdvhue-2{fill:#fff;}</style></defs><title>prescribe-button</title><g id="Layer_2" data-name="Layer 2"><g id="Art"><rect class="oiwjdvhue-1" width="248.21" height="60.31" rx="14.03"/><path class="oiwjdvhue-2" d="M63.92,44.6H50.05a2.54,2.54,0,1,0,0,5.07H63.92a2.54,2.54,0,0,0,0-5.07m0,3.87H50.05a1.34,1.34,0,1,1,0-2.67H63.92a1.34,1.34,0,0,1,0,2.67M68.13,8.61H45.83a2.59,2.59,0,0,0-2.58,2.58v.6H44.4v5.77a1.8,1.8,0,0,0-1.15,1.67v.6H44.5a4.19,4.19,0,0,0-1.25,3V49.76A4.2,4.2,0,0,0,47.44,54H66.53a4.19,4.19,0,0,0,4.18-4.19V22.82a4.19,4.19,0,0,0-1.25-3h1.25v-.6a1.78,1.78,0,0,0-1.15-1.67V11.79h1.15v-.6a2.58,2.58,0,0,0-2.58-2.58m-22.3,1.2h22.3a1.39,1.39,0,0,1,1.25.78H44.58a1.39,1.39,0,0,1,1.25-.78m22.54,2v5.65h-.32a1.51,1.51,0,0,1-.21-.5l-.35-5.15Zm-5.79,0-.35,5.15a1.51,1.51,0,0,1-.21.5H52.11a1.51,1.51,0,0,1-.21-.5l-.35-5.15Zm-15.94,0-.35,5.15a1.51,1.51,0,0,1-.21.5H45.6V11.79Zm22.88,11V49.76a3,3,0,0,1-3,3H47.44a3,3,0,0,1-3-3V22.82a3,3,0,0,1,2.84-3H66.69a3,3,0,0,1,2.83,3m-22.9,7.61H51.2V32H62.58V30.43h4.76L57,21.28Zm14.76-1.2v1.53h-9V29.23H49.78L57,22.88l7.2,6.35Z"/></g></g></svg>